<svg xmlns="http://www.w3.org/2000/svg" viewBox="0 0 321.17 124.14"><defs><style>.cls-1{fill:#ff4500;}</style></defs><title>anchor-logo</title><g id="Layer_2" data-name="Layer 2"><g id="Layer_1-2" data-name="Layer 1"><g id="Layer_2-2" data-name="Layer 2"><g id="Layer_1-2-2" data-name="Layer 1-2"><polygon class="cls-1" points="42.74 56.67 62.07 50.38 81.4 56.67 81.4 43.94 42.74 43.94 42.74 56.67"/><path class="cls-1" d="M62.07,0a62.07,62.07,0,1,0,62.07,62.07h0A62.07,62.07,0,0,0,62.07,0ZM87.83,94.68c-4.51,0-8.86-1.77-12.89-3.86a28,28,0,0,1-25.76,0c-4,2.09-8.37,3.86-12.88,3.86H33.08c7.4,0,16.1-9.66,16.1-9.66a22.24,22.24,0,0,0,25.76,0S83.85,94.68,91,94.68Zm7.9-29.86L88,85.77h-.16c-5.16,0-9.66-2.88-12.88-6.42-3.23,3.54-7.73,6.46-12.89,6.46S52.42,82.9,49.2,79.36C46,82.9,41.45,85.77,36.3,85.77h-.16l-7.72-21a3.46,3.46,0,0,1,.16-2.55,3.17,3.17,0,0,1,1.92-1.61l5.75-1.9V43.94a6.55,6.55,0,0,1,6.49-6.49H52.4l2.42-8H69.31l2.41,8h9.67a6.56,6.56,0,0,1,6.51,6.49V58.76l5.77,1.89a3.21,3.21,0,0,1,1.9,1.6A3.57,3.57,0,0,1,95.73,64.82Z"/></g></g><path d="M168.4,84.59a2.39,2.39,0,0,1-.91,2.11,3.13,3.13,0,0,1-1.77.64,3,3,0,0,1-1.8-.64,2.43,2.43,0,0,1-.89-2.11V82.22h-.13a12.36,12.36,0,0,1-4.29,3.87,11,11,0,0,1-5.2,1.25,14.25,14.25,0,0,1-6.52-1.44A14.54,14.54,0,0,1,142.08,82a17.31,17.31,0,0,1-3-5.58,21.41,21.41,0,0,1,0-13.06,17.26,17.26,0,0,1,3-5.57A14.54,14.54,0,0,1,146.89,54a14.25,14.25,0,0,1,6.52-1.44,10.81,10.81,0,0,1,5.24,1.21,16.36,16.36,0,0,1,4.25,3.43H163V55.32a2.52,2.52,0,0,1,.89-2.16,3,3,0,0,1,1.8-.65,3.13,3.13,0,0,1,1.77.64,2.38,2.38,0,0,1,.91,2.11ZM144.34,74.27a12.62,12.62,0,0,0,1.63,4,9.33,9.33,0,0,0,3,3,8.31,8.31,0,0,0,4.46,1.14,8.21,8.21,0,0,0,4.48-1.14,9.34,9.34,0,0,0,3-3,12.64,12.64,0,0,0,1.64-4,19.51,19.51,0,0,0,0-8.69,12.64,12.64,0,0,0-1.64-4,9.47,9.47,0,0,0-3-3,8.21,8.21,0,0,0-4.48-1.14A8.31,8.31,0,0,0,149,58.62a9.46,9.46,0,0,0-3,3,12.62,12.62,0,0,0-1.63,4,19.51,19.51,0,0,0,0,8.69Z"/><path d="M174.69,55.52a3,3,0,0,1,.78-2.21,3.14,3.14,0,0,1,4.2,0,3.15,3.15,0,0,1,.78,2.26V57l.13.13A10.76,10.76,0,0,1,185,53.55a13.53,13.53,0,0,1,5.18-1,13.74,13.74,0,0,1,4.16.67,10.91,10.91,0,0,1,3.89,2.21,11.85,11.85,0,0,1,2.92,4,14.36,14.36,0,0,1,1.14,6V84.33a3,3,0,0,1-.78,2.21,3.16,3.16,0,0,1-4.2,0,3,3,0,0,1-.78-2.2V65.84a9.28,9.28,0,0,0-.72-3.83A7.29,7.29,0,0,0,194,59.43,7.53,7.53,0,0,0,191.39,58a8.91,8.91,0,0,0-5.77,0A7.53,7.53,0,0,0,183,59.43,7.29,7.29,0,0,0,181.17,62a9.28,9.28,0,0,0-.72,3.83v18.5a3,3,0,0,1-.78,2.2,3.16,3.16,0,0,1-4.2,0,3,3,0,0,1-.78-2.21Z"/><path d="M208.05,63.39A16.22,16.22,0,0,1,211,57.82,14.13,14.13,0,0,1,215.88,54a15.61,15.61,0,0,1,6.94-1.44,14.88,14.88,0,0,1,6.9,1.3c1.64.88,2.46,1.9,2.46,3.08a2.51,2.51,0,0,1-.65,1.67,2.17,2.17,0,0,1-1.71.75,3.35,3.35,0,0,1-1.47-.29L227,58.4a15.94,15.94,0,0,0-1.71-.62,8.3,8.3,0,0,0-2.45-.3,8.78,8.78,0,0,0-4.59,1.14,9.45,9.45,0,0,0-3.07,3,13.06,13.06,0,0,0-1.74,4,17.14,17.14,0,0,0,0,8.69,13.06,13.06,0,0,0,1.74,4,9.32,9.32,0,0,0,3.07,3,8.78,8.78,0,0,0,4.59,1.14,9.09,9.09,0,0,0,2.52-.29,10.55,10.55,0,0,0,1.77-.69l1.37-.69a3.06,3.06,0,0,1,1.28-.29,2.18,2.18,0,0,1,1.6.62,2.43,2.43,0,0,1,.62,1.8c0,1.09-.77,2.12-2.32,3.08s-3.83,1.44-6.84,1.44a15.61,15.61,0,0,1-6.94-1.44A14.13,14.13,0,0,1,211,82a16.27,16.27,0,0,1-2.92-5.58,22.92,22.92,0,0,1,0-13.06Z"/><path d="M258.24,65.84a9.28,9.28,0,0,0-.72-3.83,7.29,7.29,0,0,0-1.87-2.58A7.53,7.53,0,0,0,253.07,58a8.88,8.88,0,0,0-5.76,0,7.57,7.57,0,0,0-2.59,1.47A7.41,7.41,0,0,0,242.85,62a9.28,9.28,0,0,0-.72,3.83v18.5a3,3,0,0,1-.78,2.2,2.8,2.8,0,0,1-2.1.8,2.77,2.77,0,0,1-2.09-.81,3.06,3.06,0,0,1-.79-2.24V39.84a3.06,3.06,0,0,1,.79-2.24,3.09,3.09,0,0,1,4.19,0,3.26,3.26,0,0,1,.78,2.31V57l.13.13a10.72,10.72,0,0,1,4.46-3.54,13.45,13.45,0,0,1,5.17-1,13.74,13.74,0,0,1,4.16.67,10.74,10.74,0,0,1,3.89,2.21,11.85,11.85,0,0,1,2.92,4,14.36,14.36,0,0,1,1.14,6V84.33a3,3,0,0,1-.78,2.21,3.14,3.14,0,0,1-4.19,0,3,3,0,0,1-.79-2.2Z"/><path d="M269.8,63.39a17.07,17.07,0,0,1,3-5.57A14.54,14.54,0,0,1,277.59,54a15.46,15.46,0,0,1,13,0,14.44,14.44,0,0,1,4.81,3.87,17.07,17.07,0,0,1,3,5.57,21.41,21.41,0,0,1,0,13.06,17.12,17.12,0,0,1-3,5.58,14.44,14.44,0,0,1-4.81,3.87,15.46,15.46,0,0,1-13,0A14.54,14.54,0,0,1,272.78,82a17.12,17.12,0,0,1-3-5.58,21.41,21.41,0,0,1,0-13.06ZM275,74.27a12.39,12.39,0,0,0,1.63,4,9.33,9.33,0,0,0,3,3,8.31,8.31,0,0,0,4.46,1.14,8.21,8.21,0,0,0,4.48-1.14,9.44,9.44,0,0,0,3-3,12.64,12.64,0,0,0,1.64-4,19.51,19.51,0,0,0,0-8.69,12.64,12.64,0,0,0-1.64-4,9.58,9.58,0,0,0-3-3,8.21,8.21,0,0,0-4.48-1.14,8.31,8.31,0,0,0-4.46,1.14,9.46,9.46,0,0,0-3,3,12.39,12.39,0,0,0-1.63,4,19.51,19.51,0,0,0,0,8.69Z"/><path d="M304.21,55.52a3,3,0,0,1,.79-2.21,2.77,2.77,0,0,1,2.09-.8,2.8,2.8,0,0,1,2.1.8,3,3,0,0,1,.78,2.21V58.4h.13a15.64,15.64,0,0,1,1.34-2,13.36,13.36,0,0,1,1.84-1.92,9.27,9.27,0,0,1,2.22-1.41,6,6,0,0,1,2.46-.54,3.22,3.22,0,0,1,2.36.83,2.78,2.78,0,0,1,.85,2q0,2.43-3.6,3.07a10.81,10.81,0,0,0-2.62.8A7.53,7.53,0,0,0,312.49,61a9.55,9.55,0,0,0-1.8,2.88,11.06,11.06,0,0,0-.72,4.23v16.2a3,3,0,0,1-.78,2.21,2.8,2.8,0,0,1-2.1.8,2.77,2.77,0,0,1-2.09-.8,3,3,0,0,1-.79-2.21Z"/></g></g></svg>