<svg xmlns="http://www.w3.org/2000/svg" viewBox="0 0 512 512"><defs><style>.cls-1{fill:#ede9e8;}.cls-2{fill:#dfd7d5;}.cls-3{fill:#495959;}.cls-4{fill:#323c3c;}.cls-5{fill:#738c96;}.cls-6{fill:#ff4500;}.cls-7{fill:#e83b05;}</style></defs><title>boat</title><g id="Layer_2" data-name="Layer 2"><g id="Capa_1" data-name="Capa 1"><polygon class="cls-1" points="0 331 166 331 166 90 0 331"/><path class="cls-2" d="M166,331H434L211,0V218.93a92.81,92.81,0,0,1-45,79.73Z"/><polygon class="cls-3" points="181 90 181 376 151 376 151 90 166 60 181 90"/><polygon class="cls-4" points="181 376 166 376 166 60 181 90 181 376"/><polygon class="cls-5" points="442.3 452 61 452 61 391 31 391 31 361 352.3 361 442.3 452"/><rect class="cls-6" x="61" width="120" height="90"/><rect class="cls-7" x="166" width="15" height="90"/><polygon class="cls-3" points="442.3 452 166 452 166 361 352.3 361 442.3 452"/><path class="cls-6" d="M0,421v91H360.1c52.2,0,101.5-25.6,133.3-66.7L512,421Z"/><path class="cls-7" d="M512,421l-18.6,24.3C461.6,486.4,412.3,512,360.1,512H166V421Z"/></g></g></svg>