<svg xmlns="http://www.w3.org/2000/svg" viewBox="0 0 124.14 124.14"><defs><style>.cls-1{fill:#ff4500;}</style></defs><title>logo-icon</title><g id="Layer_2" data-name="Layer 2"><g id="Layer_1-2" data-name="Layer 1"><g id="Layer_2-2" data-name="Layer 2"><g id="Layer_1-2-2" data-name="Layer 1-2"><g id="Layer_1-2-2-2" data-name="Layer 1-2-2"><path class="cls-1" d="M48.74,30.58a5.4,5.4,0,1,0,7.07,2.9A5.39,5.39,0,0,0,48.74,30.58Z"/><path class="cls-1" d="M62.07,0a62.07,62.07,0,1,0,62.07,62.07A62.07,62.07,0,0,0,62.07,0ZM97.13,66c-1.08,11.47-8.06,23.13-19.08,28.61l-.28,4.51-3.42-3c-12.24,4.18-26.2.41-35.06-7.8l-2.87,2-1.2-13.41,12.21,5.65L45,84.32c6.61,5.41,15.38,5.62,24.12,2.72L55.52,54.52,47.28,58a3.72,3.72,0,1,1-2-4.86h0l8.24-3.44L52,46a10.48,10.48,0,1,1,6.13-2.83l1.63,3.92L67.19,44a3.72,3.72,0,1,1,2,4.84L61.75,52,75.32,84.47C83.13,80.56,89,74.79,90.24,66.74l-3,.35,5.4-12.34,8,10.85Z"/></g></g></g></g></g></svg>