<svg xmlns="http://www.w3.org/2000/svg" viewBox="0 0 335.68 124.14"><defs><style>.cls-1{fill:#ff4500;}</style></defs><title>logo</title><g id="Layer_2" data-name="Layer 2"><g id="Layer_1-2" data-name="Layer 1"><g id="Layer_1-2-2" data-name="Layer 1-2"><path d="M175,52.21a3.75,3.75,0,0,0-2.16-.77,3.68,3.68,0,0,0-2.19.8,3.09,3.09,0,0,0-1.11,2.63v.82a17.36,17.36,0,0,0-3.81-2.88,11.9,11.9,0,0,0-5.69-1.32,15.51,15.51,0,0,0-12.22,5.65,18.39,18.39,0,0,0-3.22,6,22.73,22.73,0,0,0,0,13.94,18.6,18.6,0,0,0,3.21,6,15.15,15.15,0,0,0,11.93,5.77h.29a12.32,12.32,0,0,0,5.67-1.37,13.6,13.6,0,0,0,3.87-3.17v1.12A3,3,0,0,0,170.73,88a3.71,3.71,0,0,0,2.21.78,3.81,3.81,0,0,0,2.14-.78,3,3,0,0,0,1.14-2.62l0-30.54A3,3,0,0,0,175,52.21Zm-5.92,22.34a12.81,12.81,0,0,1-1.64,4,9.43,9.43,0,0,1-3,3,9.26,9.26,0,0,1-8.81,0,9.36,9.36,0,0,1-3-3,12.65,12.65,0,0,1-1.42-3.19l-.19-.8a20,20,0,0,1,0-8.85,12.8,12.8,0,0,1,1.64-4,9.36,9.36,0,0,1,3-3,9,9,0,0,1,8.77,0,9.49,9.49,0,0,1,3,3,12.68,12.68,0,0,1,1.64,4A19.73,19.73,0,0,1,169.12,74.55Z"/><path d="M207.19,54.61a11.83,11.83,0,0,0-4.24-2.4,14.61,14.61,0,0,0-4.49-.73h-.09a14.65,14.65,0,0,0-5.53,1.09,11.79,11.79,0,0,0-4.05,2.94v-.35a3.51,3.51,0,0,0-6.06-2.72,3.67,3.67,0,0,0-.95,2.66v30a3.6,3.6,0,0,0,1,2.71,3.79,3.79,0,0,0,5.08,0,3.65,3.65,0,0,0,1-2.63V65.83a9,9,0,0,1,.71-3.79,7.13,7.13,0,0,1,1.77-2.49,7.43,7.43,0,0,1,2.57-1.41,9,9,0,0,1,5.72,0,6.55,6.55,0,0,1,4.3,3.9,9,9,0,0,1,.71,3.81V85.14a3.69,3.69,0,0,0,1,2.7,3.8,3.8,0,0,0,2.51,1,3.88,3.88,0,0,0,2.58-1,3.62,3.62,0,0,0,.94-2.64V65.44A15.39,15.39,0,0,0,210.36,59,12.75,12.75,0,0,0,207.19,54.61Z"/><path d="M225,61.72a9.44,9.44,0,0,1,3-3,8.58,8.58,0,0,1,4.56-1.12,8.1,8.1,0,0,1,2.4.29,16.17,16.17,0,0,1,1.7.62l1.43.7a3.87,3.87,0,0,0,1.72.35,2.76,2.76,0,0,0,2.17-1,3.07,3.07,0,0,0,.81-2.08c0-1.41-.95-2.64-2.86-3.67a16.19,16.19,0,0,0-7.39-1.4A17.2,17.2,0,0,0,225.06,53a15.46,15.46,0,0,0-5.26,4.13,17.16,17.16,0,0,0-3.17,6L216.09,65l.11-.11A24.34,24.34,0,0,0,216.66,77a17.35,17.35,0,0,0,3.13,6,15.42,15.42,0,0,0,5.3,4.31,16.85,16.85,0,0,0,7,1.56h.4c3.22,0,5.71-.53,7.41-1.58s2.65-2.31,2.65-3.6a3.05,3.05,0,0,0-.79-2.27,2.8,2.8,0,0,0-2-.79,3.65,3.65,0,0,0-1.55.35l-1.43.72a10.78,10.78,0,0,1-1.75.69,8.79,8.79,0,0,1-2.52.28A8.47,8.47,0,0,1,228,81.57a9.18,9.18,0,0,1-3-3,13.18,13.18,0,0,1-1.76-4,17.5,17.5,0,0,1,0-8.83A13,13,0,0,1,225,61.72Z"/><path d="M271.6,54.66a11.63,11.63,0,0,0-4.24-2.41,14.86,14.86,0,0,0-4.49-.73h-.09a14.55,14.55,0,0,0-5.51,1.09,11.64,11.64,0,0,0-4.09,2.91V38.82a3.9,3.9,0,0,0-1-2.81,3.51,3.51,0,0,0-6,2.71V85.07a3.71,3.71,0,0,0,1,2.72,3.27,3.27,0,0,0,2.51,1,3.39,3.39,0,0,0,2.58-1,3.65,3.65,0,0,0,1-2.63V65.83a8.93,8.93,0,0,1,.71-3.78,7.15,7.15,0,0,1,1.82-2.47,7.44,7.44,0,0,1,2.54-1.44,8.83,8.83,0,0,1,5.7,0,6.87,6.87,0,0,1,4.33,3.9,9,9,0,0,1,.71,3.79v19.3a3.65,3.65,0,0,0,1,2.69,3.76,3.76,0,0,0,2.51,1,3.86,3.86,0,0,0,2.57-1,3.63,3.63,0,0,0,.95-2.64V65.48A15.4,15.4,0,0,0,274.77,59,12.71,12.71,0,0,0,271.6,54.66Z"/><path d="M308.67,57.22a15.78,15.78,0,0,0-5.2-4.18,16.59,16.59,0,0,0-14,0,15.45,15.45,0,0,0-5.17,4.12,18.25,18.25,0,0,0-2.88,5l0-.06-.32,1a22.73,22.73,0,0,0,0,13.94,18.34,18.34,0,0,0,3.22,6,15.71,15.71,0,0,0,5.2,4.27,16.63,16.63,0,0,0,14,0,15.56,15.56,0,0,0,5.19-4.17,18.3,18.3,0,0,0,3.22-6,22.7,22.7,0,0,0,0-13.93A18.15,18.15,0,0,0,308.67,57.22Zm-3.16,17.33a12.69,12.69,0,0,1-1.65,4,9.43,9.43,0,0,1-3,3,8,8,0,0,1-4.44,1.12,8.18,8.18,0,0,1-4.38-1.11,9.39,9.39,0,0,1-3-3,12.11,12.11,0,0,1-1.63-4h0a19.73,19.73,0,0,1,0-8.85,12.25,12.25,0,0,1,1.63-4,9.5,9.5,0,0,1,3-3,8.19,8.19,0,0,1,4.42-1.12,8,8,0,0,1,4.4,1.11,9.57,9.57,0,0,1,3,3,12.7,12.7,0,0,1,1.65,4A20,20,0,0,1,305.51,74.55Z"/><path d="M334.63,52.46a3.91,3.91,0,0,0-2.8-1,6.74,6.74,0,0,0-2.77.61,10,10,0,0,0-2.44,1.55,14.42,14.42,0,0,0-2,2.07c-.22.29-.44.58-.64.87V55.11a3.66,3.66,0,0,0-1-2.69,3.48,3.48,0,0,0-2.52-1,3.43,3.43,0,0,0-2.57,1,3.57,3.57,0,0,0-1,2.66v30a3.67,3.67,0,0,0,1,2.7,3.39,3.39,0,0,0,2.35,1h.16a3.44,3.44,0,0,0,2.58-1,3.6,3.6,0,0,0,.95-2.65V68.21a10.85,10.85,0,0,1,.72-4.22,9.49,9.49,0,0,1,1.78-2.85,7.33,7.33,0,0,1,2.4-1.73,11.5,11.5,0,0,1,2.62-.8c2.77-.49,4.17-1.73,4.17-3.69A3.44,3.44,0,0,0,334.63,52.46Z"/><path class="cls-1" d="M48.74,30.58a5.4,5.4,0,1,0,7.07,2.9A5.41,5.41,0,0,0,48.74,30.58Z"/><path class="cls-1" d="M62.07,0a62.07,62.07,0,1,0,62.07,62.07A62.07,62.07,0,0,0,62.07,0ZM97.13,66c-1.08,11.47-8.06,23.13-19.08,28.61l-.28,4.51-3.42-3c-12.24,4.18-26.2.41-35.06-7.8l-2.87,2-1.2-13.41,12.21,5.65L45,84.32c6.61,5.41,15.38,5.62,24.12,2.72L55.52,54.52,47.28,58a3.72,3.72,0,1,1-2-4.85l8.24-3.44L52,46a10.48,10.48,0,1,1,6.13-2.83l1.63,3.92L67.19,44a3.72,3.72,0,1,1,4.88,4.84,3.69,3.69,0,0,1-2.86,0l-7.46,3.11L75.32,84.47C83.13,80.56,89,74.79,90.24,66.74l-3,.35,5.4-12.34,8,10.85Z"/></g></g></g></svg>