<svg xmlns="http://www.w3.org/2000/svg" viewBox="0 0 264 155"><title>original-content</title><g id="Layer_2" data-name="Layer 2"><g id="Layer_1-2" data-name="Layer 1"><path d="M244.71,0H19.29A19.29,19.29,0,0,0,0,19.29V135.71A19.29,19.29,0,0,0,19.29,155H244.71A19.29,19.29,0,0,0,264,135.71V19.29A19.29,19.29,0,0,0,244.71,0ZM126.31,95a35.67,35.67,0,0,1-6.92,12.61,28.32,28.32,0,0,1-10.83,7.64,39.74,39.74,0,0,1-28.12,0,28.28,28.28,0,0,1-10.82-7.64A35.36,35.36,0,0,1,62.7,95,56.38,56.38,0,0,1,60.24,77.5,56.38,56.38,0,0,1,62.7,60a35.36,35.36,0,0,1,6.92-12.61,28.28,28.28,0,0,1,10.82-7.64,39.74,39.74,0,0,1,28.12,0,28.32,28.32,0,0,1,10.83,7.64A35.67,35.67,0,0,1,126.31,60a56.69,56.69,0,0,1,2.45,17.47A56.69,56.69,0,0,1,126.31,95Zm66,18q-7.09,4.86-17.91,4.86a38.7,38.7,0,0,1-14.29-2.51,28.34,28.34,0,0,1-10.82-7.48,34.25,34.25,0,0,1-6.92-12.39,55.19,55.19,0,0,1-2.46-17.35,57,57,0,0,1,2.46-17.47,36.41,36.41,0,0,1,6.92-12.83,28.84,28.84,0,0,1,10.82-7.87,36.58,36.58,0,0,1,14.29-2.68q10.82,0,17.85,4.41t11.28,13.89L188.92,63.1a17.5,17.5,0,0,0-4.86-7.86q-3.28-3-9.65-3-7.49,0-12,4.85t-4.52,14.12v12.5q0,9.27,4.52,14.12t12,4.85q6.24,0,10-3.4a20.68,20.68,0,0,0,5.52-8.2l13.84,8A34.61,34.61,0,0,1,192.32,112.93Z"/><path d="M94.5,52.28q-7.69,0-12,5t-4.3,14.4V83.3q0,9.38,4.3,14.4t12,5c5.14,0,9.13-1.67,12-5s4.3-8.15,4.3-14.4V71.7q0-9.37-4.3-14.4C103.63,54,99.64,52.28,94.5,52.28Z"/></g></g></svg>