<svg xmlns="http://www.w3.org/2000/svg" viewBox="0 0 416.2 416"><title>post-link</title><g id="Layer_2" data-name="Layer 2"><g id="Layer_1-2" data-name="Layer 1"><path d="M232,293.1l-1.2.1a16.55,16.55,0,0,0-9.6,4.5l-64.6,64.6a72.83,72.83,0,0,1-103-103l68.6-68.6a72.4,72.4,0,0,1,11.4-9.3,73.5,73.5,0,0,1,14.8-7.5,70,70,0,0,1,15-3.7,70.91,70.91,0,0,1,10.2-.7c1.4,0,2.8.1,4.6.2a72.62,72.62,0,0,1,46.8,21A71.7,71.7,0,0,1,242.1,218a15.74,15.74,0,0,0,19.3,10.1c.1,0,.2-.1.3-.1s.2,0,.2-.1a15.62,15.62,0,0,0,10.5-19.1c-4.4-15.6-12.2-28.7-24.6-41a105.27,105.27,0,0,0-57.6-29.3c-1.9-.3-3.8-.6-5.7-.8a103.2,103.2,0,0,0-11.1-.6c-2.6,0-5.2.1-7.7.3a100.86,100.86,0,0,0-16.2,2.5c-1.1.2-2.1.5-3.2.8a104,104,0,0,0-19.5,7.3,102.72,102.72,0,0,0-27.7,19.9L30.5,236.5A105.49,105.49,0,0,0,0,311a105.15,105.15,0,0,0,179.4,74.3L244.7,320C255.1,309.5,246.7,291.7,232,293.1Z"/><path d="M385.3,30.7a105.38,105.38,0,0,0-148.7,0L172.9,94.4A16.08,16.08,0,0,0,183,121.8a16.24,16.24,0,0,0,12.7-4.6l63.8-63.6a72.83,72.83,0,0,1,103,103l-68.6,68.6a72.4,72.4,0,0,1-11.4,9.3,73.5,73.5,0,0,1-14.8,7.5,70,70,0,0,1-15,3.7,70.91,70.91,0,0,1-10.2.7c-1.4,0-2.9-.1-4.6-.2a71.86,71.86,0,0,1-63.2-46.5,16,16,0,0,0-19.1-9.8,16.16,16.16,0,0,0-11.3,20.5c4.5,14,12.1,25.9,23.7,37.5l.2.2a105.29,105.29,0,0,0,63.3,30.1,103.2,103.2,0,0,0,11.1.6q3.9,0,7.8-.3a114.33,114.33,0,0,0,19.3-3.2,104,104,0,0,0,19.5-7.3,102.72,102.72,0,0,0,27.7-19.9l68.6-68.6a105.26,105.26,0,0,0-.2-148.8Z"/></g></g></svg>