<svg xmlns="http://www.w3.org/2000/svg" viewBox="0 0 416 416"><title>post-image</title><g id="Layer_2" data-name="Layer 2"><g id="Layer_1-2" data-name="Layer 1"><path d="M64.6,264.3H255.3a5.57,5.57,0,0,0,4.5-8.8L164.4,102.1a5.51,5.51,0,0,0-9.1,0L60,255.5A5.61,5.61,0,0,0,64.6,264.3Zm194.1-58,35,55.7a5.42,5.42,0,0,0,4.5,2.4h53.2a5.57,5.57,0,0,0,4.5-8.8l-61.6-87.7a5.51,5.51,0,0,0-9.1,0L258.6,200A5.77,5.77,0,0,0,258.7,206.3Zm44.4-86.4a28,28,0,1,0-30.7-30.7A28.1,28.1,0,0,0,303.1,119.9Z"/><path d="M384,0H32A32,32,0,0,0,0,32V384a32,32,0,0,0,32,32H384a32,32,0,0,0,32-32V32A32,32,0,0,0,384,0Zm-2.7,280a8,8,0,0,1-8,8H42.7a8,8,0,0,1-8-8V42.7a8,8,0,0,1,8-8H373.4a8,8,0,0,1,8,8V280Z"/></g></g></svg>