<svg xmlns="http://www.w3.org/2000/svg" viewBox="0 0 416 416"><title>post-text</title><g id="Layer_2" data-name="Layer 2"><g id="Layer_1-2" data-name="Layer 1"><path d="M76,32V354a14,14,0,0,1-28,0V64H32A32,32,0,0,0,0,96V384a32,32,0,0,0,32,32H385.1A30.92,30.92,0,0,0,416,385.1V32A32,32,0,0,0,384,0L106,2C88.3,2,76,14.3,76,32Zm66,32h84a14,14,0,0,1,0,28H142a14,14,0,0,1,0-28Zm0,160H290a14,14,0,0,1,0,28H142a14,14,0,0,1,0-28ZM338,332H142a14,14,0,0,1,0-28H338a14,14,0,0,1,0,28Zm0-160H142a14,14,0,0,1,0-28H338a14,14,0,0,1,0,28Z"/></g></g></svg>