<svg xmlns="http://www.w3.org/2000/svg" viewBox="0 0 426 426"><title>profile</title><g id="Layer_2" data-name="Layer 2"><g id="Capa_1" data-name="Capa 1"><path d="M371.49,0h-317A54.52,54.52,0,0,0,0,54.51v317A54.52,54.52,0,0,0,54.51,426h317A54.52,54.52,0,0,0,426,371.49v-317A54.52,54.52,0,0,0,371.49,0Zm-159,77.49a76.05,76.05,0,1,1-76.16,75.93A76,76,0,0,1,212.53,77.49Zm132.71,271H80.76a10,10,0,0,1-10.05-10.05,95.67,95.67,0,0,1,95.56-95.55h93.46a95.66,95.66,0,0,1,95.55,95.55A10,10,0,0,1,345.24,348.51Z"/></g></g></svg>