<svg xmlns="http://www.w3.org/2000/svg" viewBox="0 0 896.03 896"><title>settings</title><g id="Layer_2" data-name="Layer 2"><g id="Capa_1" data-name="Capa 1"><path id="settings" d="M863.24,382.76,774.48,368a334.48,334.48,0,0,0-28.11-75.1l56.82-70.45a39.15,39.15,0,0,0-1.2-50.68L766.69,132a39.2,39.2,0,0,0-50.2-7.17l-75.91,47.72a334,334,0,0,0-112-50.55L513.73,32.76A39.15,39.15,0,0,0,475.07,0h-53.2a39.08,39.08,0,0,0-38.61,32.76L368.33,122a333.73,333.73,0,0,0-94.21,39.15l-72.19-51.52a39.22,39.22,0,0,0-50.5,4.17l-37.59,37.61a39.21,39.21,0,0,0-4.14,50.5l51.64,72.33a334.71,334.71,0,0,0-38.84,93.51l-89.74,15A39.18,39.18,0,0,0,0,421.42v53.16a39.17,39.17,0,0,0,32.76,38.66l89.74,15a333.43,333.43,0,0,0,29.71,78.14L95.65,676.43a39.18,39.18,0,0,0,1.2,50.67l35.27,39.73A39.22,39.22,0,0,0,182.34,774l77-48.37a333.71,333.71,0,0,0,109,48.37l14.93,89.25A39.08,39.08,0,0,0,421.87,896h53.2a39.15,39.15,0,0,0,38.66-32.76L528.61,774a333.31,333.31,0,0,0,93.13-38.5l75.2,53.71A39.1,39.1,0,0,0,747.41,785l37.6-37.6a39.06,39.06,0,0,0,4.13-50.48L735.6,621.87a332.74,332.74,0,0,0,38.91-93.81l88.76-14.82A39.14,39.14,0,0,0,896,474.58V421.42A39.19,39.19,0,0,0,863.24,382.76ZM449.42,616a168,168,0,1,1,168-168A168,168,0,0,1,449.42,616Z"/></g></g></svg>