<svg xmlns="http://www.w3.org/2000/svg" viewBox="0 0 438.53 438.53"><title>upvote</title><g id="Layer_2" data-name="Layer 2"><g id="Capa_1" data-name="Capa 1"><path d="M409.13,109.2a218.26,218.26,0,0,0-79.8-79.79Q278.95,0,219.27,0T109.21,29.41a218.26,218.26,0,0,0-79.8,79.79Q0,159.6,0,219.27T29.41,329.33a218.29,218.29,0,0,0,79.8,79.8q50.39,29.4,110.06,29.4t110.06-29.4a218.36,218.36,0,0,0,79.8-79.8q29.4-50.4,29.4-110.06T409.13,109.2ZM361.45,231.83l-26,26a17.94,17.94,0,0,1-25.7,0l-53.95-54V347.17a18.55,18.55,0,0,1-18.27,18.28H201a18.53,18.53,0,0,1-18.27-18.28V203.85l-54,54a18.63,18.63,0,0,1-25.7,0l-26-26a18.63,18.63,0,0,1,0-25.7L180.44,102.78l26-26a18.63,18.63,0,0,1,25.7,0l26,26L361.45,206.13a18.63,18.63,0,0,1,0,25.7Z"/></g></g></svg>